# xmcd
#
# Track frame offsets: 
#        150
#        23148
#        42058
#        61180
#        77152
#        92614
#        108490
#        125731
#        141393
#        159184
#        190859
#
# Disc length: 2762 seconds
#
# Revision: 1
# Processed by: cddbd v1.5.2PL0 Copyright (c) Steve Scherf et al.
# Submitted via: ExactAudioCopy v1.0b3
#
DISCID=8a0ac80b
DTITLE=郷ひろみ - 比呂魅卿の犯罪
DYEAR=1983
DGENRE=Pop
TTITLE0=比呂魅卿の犯罪
TTITLE1=君の名はサイコ
TTITLE2=愛の空中ブランコ
TTITLE3=夢中
TTITLE4=独身貴族
TTITLE5=やさしさが罪
TTITLE6=美貌の都
TTITLE7=毀められてタンゴ
TTITLE8=毎日僕を愛して
TTITLE9=だからスペクタクル
TTITLE10=美貌の都（Single Version）
EXTD=YEAR: 1983
EXTT0=
EXTT1=
EXTT2=
EXTT3=
EXTT4=
EXTT5=
EXTT6=
EXTT7=
EXTT8=
EXTT9=
EXTT10=
PLAYORDER=
